# xmcd CD database file
#
# Track frame offsets:
#	150
#	17253
#	38503
#	55578
#	69873
#	94859
#	108885
#	126448
#	157073
#	177784
#
# Disc length: 2686 seconds
#
# Revision: 0
# Processed by: cddbd v1.5.2PL0 Copyright (c) Steve Scherf et al.
# Submitted via: CDex 1.51
#
DISCID=700a7c0a
DTITLE=Sandunga - En Vivo
DYEAR=1900
DGENRE=Salsa
TTITLE0=Llego Sandunga
TTITLE1=Chan Chan
TTITLE2=He Nacido Para Amarte
TTITLE3=Mulato Acelerao
TTITLE4=20 Anos
TTITLE5=Almendra
TTITLE6=Percibo
TTITLE7=Un Misterio
TTITLE8=Summertime
TTITLE9=Eres Mala
EXTD=
EXTT0=
EXTT1=
EXTT2=
EXTT3=
EXTT4=
EXTT5=
EXTT6=
EXTT7=
EXTT8=
EXTT9=
PLAYORDER=
